<svg xmlns="http://www.w3.org/2000/svg" viewBox="0 0 32 32" width="32" height="32" fill="white">
  <circle cx="16" cy="16" r="16" fill="black" />
  <g transform="scale(0.8) translate(4,4)">
    <path d="M17.011719 3.0214844L16.099609 4.6816406C13.925337 8.6341175 11.752154 12.584804 9.578125 16.537109L7.6621094 14.621094 7.0019531 15.71875C5.0489841 18.973698 3.0956556 22.230199 1.1425781 25.486328L0.234375 27H2h29.517578l-.597656-1.394531c-1.0000-2.332905-2.0000-4.666905-3.0000-7l-.582031-1.357422-2.06836 2.068359C22.803333 14.44792 20.334132 9.5793478 17.867188 4.7109375L17.011719 3.0214844zM16.939453 7.3027344c1.012925 1.9989738 2.026376 3.997262 3.039063 5.9960936l-.773438.664063-2.279297-1.953125-2.279297 1.953125-.929687-.798829c1.074249-1.953726 2.148088-3.9077534 3.222656-5.8613286zM16.925781 14.642578l2.279297 1.953125 1.703125-1.458984c1.066319 2.104791 2.133005 4.209538 3.199219 6.314453l.623047 1.232422 1.93164-1.931641c.606839 1.415934 1.213449 2.832039 1.820313 4.248047H3.765625c1.430949-2.385311 2.862006-4.769448 4.292969-7.154297l1.988282 1.988281.642578-1.166015c.680904-1.237774 1.362315-2.474973 2.042969-3.712891l1.914062 1.640625 2.279296-1.953125z"/>
  </g>
</svg>